<svg xmlns="http://www.w3.org/2000/svg" viewBox="0 0 512 512" width="512" height="512" role="img" aria-label="ghostscope logo">
  <defs>
    <linearGradient id="tile" x1="0" y1="0" x2="0" y2="1">
      <stop offset="0" stop-color="#13151D"/>
      <stop offset="1" stop-color="#0A0B10"/>
    </linearGradient>
    <radialGradient id="glow" cx="0.5" cy="0.34" r="0.62">
      <stop offset="0" stop-color="#2DD4BF" stop-opacity="0.20"/>
      <stop offset="1" stop-color="#2DD4BF" stop-opacity="0"/>
    </radialGradient>
    <linearGradient id="accent" x1="0.25" y1="0.05" x2="0.75" y2="1">
      <stop offset="0" stop-color="#2DD4BF"/>
      <stop offset="1" stop-color="#0D9488"/>
    </linearGradient>
    <linearGradient id="sheen" x1="0" y1="0.05" x2="0" y2="0.6">
      <stop offset="0" stop-color="#FFFFFF" stop-opacity="0.28"/>
      <stop offset="1" stop-color="#FFFFFF" stop-opacity="0"/>
    </linearGradient>
    <filter id="shadow" x="-30%" y="-30%" width="160%" height="160%">
      <feDropShadow dx="0" dy="12" stdDeviation="16" flood-color="#0D9488" flood-opacity="0.50"/>
    </filter>
  </defs>

  <rect x="16" y="16" width="480" height="480" rx="116" fill="url(#tile)"/>
  <rect x="16" y="16" width="480" height="480" rx="116" fill="url(#glow)"/>
  <rect x="17" y="17" width="478" height="478" rx="115" fill="none" stroke="#FFFFFF" stroke-opacity="0.07" stroke-width="2"/>

  <g filter="url(#shadow)">
    <path d="M146,372 L146,240 A110,110 0 0 1 366,240 L366,372 Q329.5,408 293,372 Q256.5,408 220,372 Q183.5,408 146,372 Z" fill="url(#accent)"/>
  </g>
  <path d="M146,372 L146,240 A110,110 0 0 1 366,240 L366,372 Q329.5,408 293,372 Q256.5,408 220,372 Q183.5,408 146,372 Z" fill="url(#sheen)"/>
  <path d="M206,232 L232,232 L246,196 L266,272 L280,232 L306,232" fill="none" stroke="#0B0C12" stroke-width="13" stroke-linecap="round" stroke-linejoin="round"/>
</svg>
